<svg width="16" height="16" viewBox="0 0 16 16" fill="none" xmlns="http://www.w3.org/2000/svg">
<path d="M8 1C4.13306 1 1 4.13306 1 8C1 11.8669 4.13306 15 8 15C11.8669 15 15 11.8669 15 8C15 4.13306 11.8669 1 8 1ZM12.0645 8.79032C12.0645 8.97661 11.9121 9.12903 11.7258 9.12903H9.12903V11.7258C9.12903 11.9121 8.97661 12.0645 8.79032 12.0645H7.20968C7.02339 12.0645 6.87097 11.9121 6.87097 11.7258V9.12903H4.27419C4.0879 9.12903 3.93548 8.97661 3.93548 8.79032V7.20968C3.93548 7.02339 4.0879 6.87097 4.27419 6.87097H6.87097V4.27419C6.87097 4.0879 7.02339 3.93548 7.20968 3.93548H8.79032C8.97661 3.93548 9.12903 4.0879 9.12903 4.27419V6.87097H11.7258C11.9121 6.87097 12.0645 7.02339 12.0645 7.20968V8.79032Z" fill="black"/>
</svg>
